<svg xmlns="http://www.w3.org/2000/svg" xmlns:xlink="http://www.w3.org/1999/xlink" width="50" height="50" viewBox="0 0 50 50"><defs><style>.a{fill:url(#a);}</style><linearGradient id="a" x1="-0.25" y1="0.75" x2="0.75" y2="-0.25" gradientUnits="objectBoundingBox"><stop offset="0" stop-color="#00b7f2"/><stop offset="1" stop-color="#002581"/></linearGradient></defs><path class="a" d="M47.5,0h-30A2.5,2.5,0,0,0,15,2.5V20.833H4.167a2.5,2.5,0,0,0-2.5,2.5V40H.833A.833.833,0,0,0,0,40.833,4.172,4.172,0,0,0,4.167,45H30.833A4.163,4.163,0,0,0,35,40.842v-.008A.833.833,0,0,0,34.167,40h-.833V30.833H42.5a.833.833,0,0,0,0-1.667H38.128L36.938,25H47.5A2.5,2.5,0,0,0,50,22.5V2.5A2.5,2.5,0,0,0,47.5,0ZM3.333,23.333a.833.833,0,0,1,.833-.833H30.833a.833.833,0,0,1,.833.833V40H20a.833.833,0,0,0-.833.833H15.833A.833.833,0,0,0,15,40H3.333ZM32.607,42.6a2.515,2.515,0,0,1-1.773.735H4.167a2.5,2.5,0,0,1-2.357-1.667H14.167A.833.833,0,0,0,15,42.5h5a.833.833,0,0,0,.833-.833H33.191A2.535,2.535,0,0,1,32.607,42.6Zm.727-13.432V25H35.2l1.19,4.167Zm15-6.667a.833.833,0,0,1-.833.833H33.333a2.5,2.5,0,0,0-2.5-2.5H16.667V2.5a.833.833,0,0,1,.833-.833h30a.833.833,0,0,1,.833.833Z"/><g transform="translate(36.667 31.667)"><path class="a" d="M361.167,304H354.5a2.5,2.5,0,0,0-2.5,2.5v13.333a2.5,2.5,0,0,0,2.5,2.5h6.667a2.5,2.5,0,0,0,2.5-2.5V306.5A2.5,2.5,0,0,0,361.167,304ZM362,319.833a.833.833,0,0,1-.833.833H354.5a.833.833,0,0,1-.833-.833V306.5a.833.833,0,0,1,.833-.833h6.667a.833.833,0,0,1,.833.833Z" transform="translate(-352 -304)"/></g></svg>