<svg xmlns="http://www.w3.org/2000/svg" xmlns:xlink="http://www.w3.org/1999/xlink" width="66.92" height="48.507" viewBox="0 0 66.92 48.507"><defs><style>.a{fill:url(#a);}</style><linearGradient id="a" x1="-0.25" y1="0.75" x2="0.75" y2="-0.25" gradientUnits="objectBoundingBox"><stop offset="0" stop-color="#00b7f2"/><stop offset="1" stop-color="#002581"/></linearGradient></defs><path class="a" d="M54.283,189.33,48.91,194.7c-.07-.085-.145-.168-.224-.247l-6.939-6.939a.982.982,0,0,0-1.389,1.389l6.939,6.939a1.53,1.53,0,1,1-2.163,2.163l-3.856-3.856a.982.982,0,0,0-1.389,1.389l3.856,3.856h0a1.53,1.53,0,0,1-2.164,2.163l-3.856-3.856a.982.982,0,0,0-1.389,1.389l3.856,3.856a1.53,1.53,0,0,1-2.163,2.164l-3.856-3.856a.982.982,0,0,0-1.389,1.389l3.856,3.856a1.53,1.53,0,1,1-2.163,2.163l-2.5-2.5a3.458,3.458,0,0,0-.519-4.218l-.059-.059a3.447,3.447,0,0,0-2.787-.992A3.448,3.448,0,0,0,26,197.785a3.455,3.455,0,0,0-4.715-4.357,3.45,3.45,0,0,0-5.762-1.5l-.405.405-.3-.3a2.5,2.5,0,0,1-.737-1.778V187.7A.982.982,0,0,0,13.8,187L9.6,182.809l1.179-1.179a.982.982,0,0,0-1.389-1.389l-1.579,1.58a.765.765,0,0,1-1.08,0l-5.055-5.055a.982.982,0,0,0-1.389,1.389l5.055,5.055a2.712,2.712,0,0,0,2.594.713l4.181,4.181v2.155a4.45,4.45,0,0,0,1.312,3.167l.3.3-.329.329a3.451,3.451,0,0,0,2.441,5.892h.042c0,.015,0,.029,0,.044a3.452,3.452,0,0,0,3.453,3.452h.044a3.446,3.446,0,0,0,3.45,3.493h.043a3.442,3.442,0,0,0,1.009,2.485l.059.059a3.453,3.453,0,0,0,4.883,0l1.842-1.842,2.425,2.425a3.492,3.492,0,0,0,5.962-2.531h.061a3.49,3.49,0,0,0,3.491-3.556h.061a3.492,3.492,0,0,0,3.494-3.493c0-.021,0-.041,0-.061h.06a3.488,3.488,0,0,0,3.484-3.727l5.973-5.973a.982.982,0,0,0-1.39-1.389Zm-39.5,8.213a1.488,1.488,0,0,1,0-2.1l2.123-2.123a1.488,1.488,0,1,1,2.1,2.1l-2.123,2.123A1.49,1.49,0,0,1,14.786,197.544Zm4.546,3.929a1.488,1.488,0,0,1-1.052-2.54L20.4,196.81l1.32-1.32a1.488,1.488,0,0,1,2.1,2.1l-3.443,3.443a1.478,1.478,0,0,1-1.052.436Zm2.441,3.058a1.49,1.49,0,0,1,0-2.1l2.343-2.343a1.488,1.488,0,0,1,2.1,2.1l-2.344,2.344A1.489,1.489,0,0,1,21.773,204.531Zm5.657,3.553a1.488,1.488,0,0,1-2.1,0l-.059-.059a1.489,1.489,0,0,1,0-2.1l2.343-2.343,0,0,.294-.294a1.49,1.49,0,0,1,2.1,0l.059.059a1.489,1.489,0,0,1,0,2.1Z" transform="translate(0 -162.572)"/><path class="a" d="M146.683,88.63a.982.982,0,0,0-1.389,0l-3.681,3.681a.134.134,0,0,1-.186,0L128.414,79.882a.133.133,0,0,1,0-.19l7.718-7.718a.982.982,0,0,0-1.389-1.389L127.022,78.3a2.093,2.093,0,0,0-.182,2.755l-3.532,3.464-3.328-1.856a2.933,2.933,0,0,0-1.426-.371H109.1l-.72-.72a6.622,6.622,0,0,0-2.339-1.515l-2.618-1-1.21-1.21a2.731,2.731,0,0,0-.41-3.327L97.86,70.585a.982.982,0,0,0-1.389,1.389l3.941,3.941a.765.765,0,0,1,0,1.08l-8.01,8.01A.982.982,0,0,0,93.791,86.4l7.092-7.092,1.3,1.3a.984.984,0,0,0,.345.223L105.34,81.9a4.668,4.668,0,0,1,1.613,1.033c-.06.05-.118.1-.174.158l-3.736,3.736a3.925,3.925,0,0,0,5.268,5.808l2.827-2.324h2.945l3.365,3.365a.982.982,0,0,0,1.389-1.389l-2.431-2.431a.981.981,0,0,0-.828-1.509h-4.792a.982.982,0,0,0-.624.224l-3.1,2.548a1.961,1.961,0,0,1-2.631-2.9l3.736-3.736a.735.735,0,0,1,.523-.217h9.863a.965.965,0,0,1,.469.122l3.681,2.053a1.433,1.433,0,0,0,1.69-.226l3.847-3.773,10.593,10.118L137.293,94.1a.982.982,0,0,0,1.389,1.389l1.586-1.586A2.108,2.108,0,0,0,143,93.7l3.681-3.681A.983.983,0,0,0,146.683,88.63Z" transform="translate(-80.05 -70.297)"/></svg>