<svg xmlns="http://www.w3.org/2000/svg" xmlns:xlink="http://www.w3.org/1999/xlink" width="50.986" height="50.817" viewBox="0 0 50.986 50.817"><defs><style>.a{fill:url(#a);}</style><linearGradient id="a" x1="-0.25" y1="0.75" x2="0.75" y2="-0.25" gradientUnits="objectBoundingBox"><stop offset="0" stop-color="#00b7f2"/><stop offset="1" stop-color="#002581"/></linearGradient></defs><path class="a" d="M287.395,12.654a2.856,2.856,0,0,0-1.583-4.872l-4.371-.635a1.361,1.361,0,0,1-1.025-.745l-1.955-3.961a2.856,2.856,0,0,0-5.122,0L271.384,6.4a1.361,1.361,0,0,1-1.025.745l-4.371.635a2.856,2.856,0,0,0-1.583,4.872l3.163,3.083a1.361,1.361,0,0,1,.392,1.2l-.747,4.353a2.853,2.853,0,0,0,4.144,3.011l3.91-2.055a1.361,1.361,0,0,1,1.267,0l3.91,2.055a2.856,2.856,0,0,0,4.144-3.011l-.143-.833a.748.748,0,0,0-1.474.253l.143.833a1.361,1.361,0,0,1-1.975,1.435l-3.91-2.055a2.855,2.855,0,0,0-2.658,0l-3.91,2.055a1.361,1.361,0,0,1-1.975-1.435l.747-4.353a2.855,2.855,0,0,0-.821-2.528l-3.163-3.083a1.361,1.361,0,0,1,.754-2.322l4.371-.635a2.856,2.856,0,0,0,2.151-1.562L274.679,3.1a1.361,1.361,0,0,1,2.441,0l1.955,3.961a2.856,2.856,0,0,0,2.151,1.562l4.371.635a1.361,1.361,0,0,1,.754,2.322l-3.163,3.083a2.855,2.855,0,0,0-.821,2.528l.025.145a.748.748,0,0,0,1.474-.253l-.025-.145a1.361,1.361,0,0,1,.392-1.2Z" transform="translate(-237.273 -0.849)"/><path class="a" d="M41.084,148.975a3.5,3.5,0,0,0-2.656-5.794l-11.377-.014s-.127-.37-.207-.541v0a2.1,2.1,0,0,1-.186-1.166c.167-1.276.208-2.6.241-3.666.085-2.731-.46-4.726-1.667-6.1a6.375,6.375,0,0,0-4.79-2.168H20.4a1.9,1.9,0,0,0-1.868,1.9v3.32c0,2.113-.342,5.052-1.971,7.06-1.729,2.129-3.221,2.111-5.693,2.08l-.257,0v-.9a2.7,2.7,0,0,0-2.7-2.7H2.7a2.7,2.7,0,0,0-2.7,2.7v7.506a.748.748,0,1,0,1.5,0v-7.506a1.2,1.2,0,0,1,1.2-1.2H7.913a1.2,1.2,0,0,1,1.2,1.2v21.834a1.2,1.2,0,0,1-1.2,1.2H2.7a1.2,1.2,0,0,1-1.2-1.2V153.9a.748.748,0,1,0-1.5,0v10.917a2.7,2.7,0,0,0,2.7,2.7H7.913a2.7,2.7,0,0,0,2.7-2.7v-1.129h1.011a2.2,2.2,0,0,1,1.363.481c.1.08.218.18.354.3a7.922,7.922,0,0,0,5.165,2.284H36.853a3.5,3.5,0,0,0,2.724-5.713,3.5,3.5,0,0,0,1.508-5.6,3.507,3.507,0,0,0,0-6.465Zm-9.036-4.3h6.38a2.012,2.012,0,1,1,0,4.024h-6.38a2.012,2.012,0,1,1,0-4.024ZM27.6,165.257H18.5a6.428,6.428,0,0,1-4.194-1.925c-.14-.12-.273-.233-.394-.329a3.7,3.7,0,0,0-2.294-.806H10.611V145.378l.239,0c2.619.032,4.688.058,6.872-2.633,1.052-1.3,2.306-3.736,2.306-8v-3.32a.4.4,0,0,1,.383-.4h.03a4.949,4.949,0,0,1,3.669,1.66c.944,1.074,1.368,2.731,1.295,5.065-.032,1.032-.072,2.316-.229,3.519a3.6,3.6,0,0,0,.314,1.993l0,.011.008.018,0,0a5.239,5.239,0,0,1,.449,1.785,4.993,4.993,0,0,1-.46,2.294,5.421,5.421,0,0,1-2.662,2.439.748.748,0,0,0-.38.986c.579,1.305,2.728-.657,3.259-1.207a5.778,5.778,0,0,0,1.149-1.61,6.466,6.466,0,0,0,.588-2.971c-.005-.111-.015-.227-.029-.345h1.772a3.5,3.5,0,0,0,1.5,5.258,3.5,3.5,0,0,0,0,4.573,3.5,3.5,0,0,0-1.364,5.438,3.5,3.5,0,0,0-1.722,5.325Zm9.25,0H30.468a2.012,2.012,0,0,1,0-4.024h6.38a2.012,2.012,0,1,1,0,4.024Zm1.576-5.519h-6.38a2.012,2.012,0,1,1,0-4.024h6.38a2.012,2.012,0,1,1,0,4.024Zm1.3-5.519h-6.38a2.012,2.012,0,1,1,0-4.024h6.38a2.012,2.012,0,1,1,0,4.024Z" transform="translate(0 -116.701)"/></svg>